<svg xmlns="http://www.w3.org/2000/svg" viewBox="0 0 32 32"><path d="M7.101 15.102A4.006 4.006 0 004 19c0 2.209 1.798 4 4.003 4h16.994A4.004 4.004 0 0029 19a4.008 4.008 0 00-3.042-3.884 4.5 4.5 0 00-7.606-3.831 6 6 0 00-11.251 3.817zm19.898-.687A4.999 4.999 0 0130 19c0 2.756-2.238 5-4.999 5H8a4.996 4.996 0 01-4.999-5 5.006 5.006 0 013.012-4.588 7 7 0 0112.602-4.595A5.5 5.5 0 0127 14.415zM10.5 25c-.276 0-.5.216-.5.495v2.009c0 .274.232.495.5.495.276 0 .5-.216.5-.495v-2.009a.502.502 0 00-.5-.495zm3 2c-.276 0-.5.216-.5.495v2.009c0 .274.232.495.5.495.276 0 .5-.216.5-.495v-2.009a.502.502 0 00-.5-.495zm3-2c-.276 0-.5.216-.5.495v2.009c0 .274.232.495.5.495.276 0 .5-.216.5-.495v-2.009a.502.502 0 00-.5-.495zm3 2c-.276 0-.5.216-.5.495v2.009c0 .274.232.495.5.495.276 0 .5-.216.5-.495v-2.009a.502.502 0 00-.5-.495zm3-2c-.276 0-.5.216-.5.495v2.009c0 .274.232.495.5.495.276 0 .5-.216.5-.495v-2.009a.502.502 0 00-.5-.495z"/></svg>