<svg viewBox="0 0 512 512" xmlns="http://www.w3.org/2000/svg"><path d="M292 100c-66.27 0-120 53.73-120 120 0 19.691 4.738 38.281 13.148 54.672l.012.008 148.54 57.87h.01C379.423 315.61 412 271.61 412 220c0-66.27-53.73-120-120-120zm0 0" fill="#ffda2d"/><path d="M355 352c41.422 0 75 33.578 75 75s-33.578 75-75 75H70c-33.14 0-60-26.86-60-60s26.86-60 60-60c0-33.14 26.86-60 60-60 3.41 0 6.7.46 9.95 1 17.019-36.695 53.675-61 95.05-61 53.766 0 97.191 40.426 103.68 91.898C343.95 352.73 349.379 352 355 352zm0 0" fill="#fff5f5"/><path d="M70 512h285c46.867 0 85-38.133 85-85s-38.133-85-85-85c-2.691 0-5.398.145-8.156.43-.297-1.368-.63-2.73-.977-4.086C391.11 317.777 422 272.227 422 220c0-54.156-33.297-101.531-82.102-120.887-5.136-2.035-10.945.477-12.984 5.61-2.035 5.132.477 10.945 5.61 12.98C374.73 134.441 402 174.593 402 220c0 42.54-24.887 81.32-62.816 99.379C320.734 278.679 280.12 252 235 252a114.585 114.585 0 00-45.023 9.234C184.68 248.191 182 234.364 182 220c0-45.406 27.27-85.559 69.477-102.297 5.132-2.035 7.644-7.848 5.609-12.98-2.04-5.133-7.848-7.645-12.984-5.61C195.34 118.45 162 165.79 162 220a130.63 130.63 0 0010.309 50.762c-15.801 10.414-29.004 24.738-38.094 41.414A52.801 52.801 0 00130 312c-35.422 0-64.781 26.441-69.375 60.625C26.441 377.219 0 406.578 0 442c0 38.598 31.402 70 70 70zm0-120c5.523 0 10-4.477 10-10 0-27.57 22.43-50 50-50 2.578 0 5.188.348 8.313.863a10 10 0 0010.71-5.656C164.633 293.547 198.04 272 235 272c47.336 0 87.746 35.438 93.758 83.148a9.99 9.99 0 004.164 6.926 9.986 9.986 0 007.926 1.586c5.039-1.117 9.668-1.66 14.152-1.66 35.84 0 65 29.16 65 65s-29.16 65-65 65H70c-27.57 0-50-22.43-50-50s22.43-50 50-50zm0 0M193.34 69.117c2.746 4.762 8.855 6.438 13.66 3.664 4.781-2.761 6.422-8.875 3.66-13.66l-15-25.988c-2.758-4.785-8.875-6.426-13.656-3.664-4.785 2.761-6.426 8.875-3.664 13.66zm0 0M452.879 138.66l25.988-15c4.785-2.762 6.426-8.875 3.664-13.66-2.761-4.781-8.879-6.426-13.66-3.66l-25.988 15c-4.785 2.758-6.426 8.875-3.664 13.656 2.754 4.77 8.863 6.434 13.66 3.664zm0 0M105.133 123.66l25.988 15c4.813 2.778 10.914 1.094 13.66-3.664 2.762-4.781 1.121-10.898-3.664-13.656l-25.988-15c-4.785-2.762-10.899-1.121-13.66 3.66-2.762 4.785-1.121 10.898 3.664 13.66zm0 0M442.883 318.66l25.988 15c4.762 2.75 10.887 1.145 13.66-3.664 2.762-4.781 1.121-10.898-3.664-13.656l-25.988-15c-4.79-2.766-10.902-1.121-13.66 3.66-2.762 4.785-1.121 10.898 3.664 13.66zm0 0M377 72.781c4.766 2.746 10.887 1.14 13.66-3.664l15-25.988c2.762-4.785 1.121-10.899-3.66-13.66a9.997 9.997 0 00-13.66 3.664l-15 25.988c-2.762 4.785-1.121 10.899 3.66 13.66zm0 0M292 50c5.523 0 10-4.477 10-10V10c0-5.523-4.477-10-10-10s-10 4.477-10 10v30c0 5.523 4.477 10 10 10zm0 0M462 220c0 5.523 4.477 10 10 10h30c5.523 0 10-4.477 10-10s-4.477-10-10-10h-30c-5.523 0-10 4.477-10 10zm0 0M82 230h30c5.523 0 10-4.477 10-10s-4.477-10-10-10H82c-5.523 0-10 4.477-10 10s4.477 10 10 10zm0 0"/><path d="M302 100c0 5.523-4.477 10-10 10s-10-4.477-10-10 4.477-10 10-10 10 4.477 10 10zm0 0"/></svg>